# xmcd
#
# Track frame offsets: 
#        150
#        11393
#        21166
#        35522
#        53111
#        73385
#        85999
#        103091
#        115495
#        130750
#        141952
#        158560
#        172099
#
# Disc length: 2437 seconds
#
# Revision: 0
# Processed by: cddbd v1.5.2PL0 Copyright (c) Steve Scherf et al.
# Submitted via: ExactAudioCopyFreeDBPlugin 1.0
#
DISCID=b309830d
DTITLE=Billy Strings and Don Julin - Rock of Ages
DYEAR=2013
DGENRE=Bluegrass
TTITLE0=Dust in a Baggie
TTITLE1=Soldier's Joy
TTITLE2=Cocaine Blues
TTITLE3=Watson Blues
TTITLE4=Wild Bill Jones
TTITLE5=Red Haired Boy
TTITLE6=I've Just Seen the Rock of Ages
TTITLE7=Kickin' Mule
TTITLE8=Summertime
TTITLE9=Beaumont Rag
TTITLE10=The Cuckoo
TTITLE11=Long Journey Home
TTITLE12=Cluck Old Hen
EXTD=
EXTT0=
EXTT1=
EXTT2=
EXTT3=
EXTT4=
EXTT5=
EXTT6=
EXTT7=
EXTT8=
EXTT9=
EXTT10=
EXTT11=
EXTT12=
PLAYORDER=
